<svg width="16" height="16" viewBox="0 0 16 16" fill="none" xmlns="http://www.w3.org/2000/svg">
<path d="M11.3813 9.82502H10.7L10.4585 9.59215C11.3037 8.6089 11.8126 7.3324 11.8126 5.94377C11.8126 2.8474 9.30272 0.337524 6.20635 0.337524C3.10997 0.337524 0.600098 2.8474 0.600098 5.94377C0.600098 9.04015 3.10997 11.55 6.20635 11.55C7.59497 11.55 8.87147 11.0411 9.85472 10.1959L10.0876 10.4374V11.1188L14.4001 15.4226L15.6852 14.1375L11.3813 9.82502ZM6.20635 9.82502C4.05872 9.82502 2.3251 8.0914 2.3251 5.94377C2.3251 3.79615 4.05872 2.06252 6.20635 2.06252C8.35397 2.06252 10.0876 3.79615 10.0876 5.94377C10.0876 8.0914 8.35397 9.82502 6.20635 9.82502Z" fill="#77AC35"/>
</svg>
