<svg width="15" height="15" viewBox="0 0 15 15" fill="none" xmlns="http://www.w3.org/2000/svg">
<path d="M7.5001 2.46376C8.5006 2.46376 9.31135 3.27451 9.31135 4.27501C9.31135 5.27551 8.5006 6.08626 7.5001 6.08626C6.4996 6.08626 5.68885 5.27551 5.68885 4.27501C5.68885 3.27451 6.4996 2.46376 7.5001 2.46376ZM7.5001 10.2263C10.0617 10.2263 12.7613 11.4855 12.7613 12.0375V12.9863H2.23885V12.0375C2.23885 11.4855 4.93847 10.2263 7.5001 10.2263ZM7.5001 0.825012C5.59397 0.825012 4.0501 2.36889 4.0501 4.27501C4.0501 6.18114 5.59397 7.72501 7.5001 7.72501C9.40622 7.72501 10.9501 6.18114 10.9501 4.27501C10.9501 2.36889 9.40622 0.825012 7.5001 0.825012ZM7.5001 8.58751C5.19722 8.58751 0.600098 9.74326 0.600098 12.0375V14.625H14.4001V12.0375C14.4001 9.74326 9.80297 8.58751 7.5001 8.58751Z" fill="#77AC35"/>
</svg>
