<svg width="15" height="15" viewBox="0 0 15 15" fill="none" xmlns="http://www.w3.org/2000/svg">
    <path d="M1.77377 0.85132L2.30272 0.322373C2.63955 -0.0144537 3.18565 -0.0144546 3.52248 0.322372L5.75272 2.55261C6.08955 2.88944 6.08955 3.43555 5.75272 3.77237L4.20676 5.31833C3.94898 5.57612 3.88507 5.96994 4.04811 6.29601C4.99061 8.18102 6.51907 9.70948 8.40408 10.652C8.73016 10.815 9.12398 10.7511 9.38176 10.4933L10.9277 8.94737C11.2645 8.61055 11.8106 8.61055 12.1475 8.94737L14.3777 11.1776C14.7145 11.5144 14.7145 12.0605 14.3777 12.3974L13.8488 12.9263C12.0277 14.7474 9.14477 14.9522 7.08449 13.407L6.04224 12.6254C4.53845 11.4975 3.20259 10.1616 2.07474 8.65785L1.29305 7.6156C-0.252155 5.55532 -0.0472691 2.67236 1.77377 0.85132Z" fill="#77AC35"/>
</svg>
