<svg style="position: absolute; width: 0; height: 0; overflow: hidden;" version="1.1" xmlns="http://www.w3.org/2000/svg" xmlns:xlink="http://www.w3.org/1999/xlink">
<defs>
<symbol id="search" viewBox="0 0 16 16" fill="none">
<title>search</title>
<path d="M11.3813 9.82502H10.7L10.4585 9.59215C11.3037 8.6089 11.8126 7.3324 11.8126 5.94377C11.8126 2.8474 9.30272 0.337524 6.20635 0.337524C3.10997 0.337524 0.600098 2.8474 0.600098 5.94377C0.600098 9.04015 3.10997 11.55 6.20635 11.55C7.59497 11.55 8.87147 11.0411 9.85472 10.1959L10.0876 10.4374V11.1188L14.4001 15.4226L15.6852 14.1375L11.3813 9.82502ZM6.20635 9.82502C4.05872 9.82502 2.3251 8.0914 2.3251 5.94377C2.3251 3.79615 4.05872 2.06252 6.20635 2.06252C8.35397 2.06252 10.0876 3.79615 10.0876 5.94377C10.0876 8.0914 8.35397 9.82502 6.20635 9.82502Z" fill="#77AC35"/>
</symbol>
<symbol id="brifcase" viewBox="0 0 16 16" fill="none">
<title>brifcase</title>
<path d="M10.8124 2.93554H8.56994V1.75528C8.56994 1.10023 8.07098 0.575012 7.44869 0.575012H5.20619C4.5839 0.575012 4.08494 1.10023 4.08494 1.75528V2.93554H1.84244C1.22015 2.93554 0.726798 3.46076 0.726798 4.1158L0.721191 10.6072C0.721191 11.2623 1.22015 11.7875 1.84244 11.7875H10.8124C11.4347 11.7875 11.9337 11.2623 11.9337 10.6072V4.1158C11.9337 3.46076 11.4347 2.93554 10.8124 2.93554ZM7.44869 2.93554H5.20619V1.75528H7.44869V2.93554Z" fill="#77AC35"/>
</symbol>
<symbol id="home" viewBox="0 0 16 16" fill="none">
<title>home</title>
<path d="M8.84961 3.21912L13.1621 7.32867V14.461H11.4371V8.98163H6.26211V14.461H4.53711V7.32867L8.84961 3.21912ZM8.84961 0.762512L0.224609 8.98163H2.81211V16.2875H7.98711V10.8081H9.71211V16.2875H14.8871V8.98163H17.4746L8.84961 0.762512Z" fill="black"/>
</symbol>
<symbol id="phone" viewBox="0 0 16 16" fill="none">
<title>phone</title>
<path d="M1.77377 0.85132L2.30272 0.322373C2.63955 -0.0144537 3.18565 -0.0144546 3.52248 0.322372L5.75272 2.55261C6.08955 2.88944 6.08955 3.43555 5.75272 3.77237L4.20676 5.31833C3.94898 5.57612 3.88507 5.96994 4.04811 6.29601C4.99061 8.18102 6.51907 9.70948 8.40408 10.652C8.73016 10.815 9.12398 10.7511 9.38176 10.4933L10.9277 8.94737C11.2645 8.61055 11.8106 8.61055 12.1475 8.94737L14.3777 11.1776C14.7145 11.5144 14.7145 12.0605 14.3777 12.3974L13.8488 12.9263C12.0277 14.7474 9.14477 14.9522 7.08449 13.407L6.04224 12.6254C4.53845 11.4975 3.20259 10.1616 2.07474 8.65785L1.29305 7.6156C-0.252155 5.55532 -0.0472691 2.67236 1.77377 0.85132Z" fill="#77AC35"/>
</symbol>
<symbol id="user" viewBox="0 0 16 16" fill="none">
<title>user</title>
<path d="M7.5001 2.46376C8.5006 2.46376 9.31135 3.27451 9.31135 4.27501C9.31135 5.27551 8.5006 6.08626 7.5001 6.08626C6.4996 6.08626 5.68885 5.27551 5.68885 4.27501C5.68885 3.27451 6.4996 2.46376 7.5001 2.46376ZM7.5001 10.2263C10.0617 10.2263 12.7613 11.4855 12.7613 12.0375V12.9863H2.23885V12.0375C2.23885 11.4855 4.93847 10.2263 7.5001 10.2263ZM7.5001 0.825012C5.59397 0.825012 4.0501 2.36889 4.0501 4.27501C4.0501 6.18114 5.59397 7.72501 7.5001 7.72501C9.40622 7.72501 10.9501 6.18114 10.9501 4.27501C10.9501 2.36889 9.40622 0.825012 7.5001 0.825012ZM7.5001 8.58751C5.19722 8.58751 0.600098 9.74326 0.600098 12.0375V14.625H14.4001V12.0375C14.4001 9.74326 9.80297 8.58751 7.5001 8.58751Z" fill="#77AC35"/>
</symbol>
</defs>
</svg>